<?xml version="1.0" encoding="utf-8"?>
<!-- Generator: Adobe Illustrator 25.0.1, SVG Export Plug-In . SVG Version: 6.00 Build 0)  -->
<svg version="1.1" id="katman_1" xmlns="http://www.w3.org/2000/svg" xmlns:xlink="http://www.w3.org/1999/xlink" x="0px" y="0px"
	 viewBox="0 0 560 400" style="enable-background:new 0 0 560 400;" xml:space="preserve">
<style type="text/css">
	.st0{fill:#1F4899;}
	.st1{fill:url(#SVGID_1_);}
</style>
<g transform="matrix(2.64162 0 0 -2.64162 443.384 829.33)">
	<g>
		<path class="st0" d="M-65.78,232.61h7.87v29.6h-7.87V232.61z"/>
		<path class="st0" d="M-23.73,262.22v-6.17h9.9v-23.44h7.87v23.44h9.9v6.17H-23.73z"/>
		<path class="st0" d="M-34.69,250.5h-6.58c-1.75,0-3.16,0.72-3.16,2.77c0,2.06,1.41,2.78,3.16,2.78h14.14v6.17H-42.2
			c-5.63,0-10.19-3.25-10.19-8.94c0-5.69,4.56-8.94,10.19-8.94h6.77c1.74,0,3.16-0.72,3.16-2.78c0-2.05-1.42-2.77-3.16-2.77H-51.3
			v-6.17h16.61c5.63,0,10.19,3.24,10.19,8.94C-24.5,247.24-29.06,250.5-34.69,250.5"/>
		<path class="st0" d="M-89.74,262.22l-11.13-26.64l-10.61,11.83l13.26,14.8h-8.99l-12.57-14.05v14.05h-7.87v-29.61h7.87v14.05
			l12.57-14.05h13.09l9.01,22.33l6.55-16.41h-10.4l2.47-5.91h18.39l-12.37,29.61H-89.74z"/>
	</g>
	
		<linearGradient id="SVGID_1_" gradientUnits="userSpaceOnUse" x1="-39.0789" y1="211.5954" x2="121.2351" y2="211.5954" gradientTransform="matrix(2.7695 0 0 2.7695 -37.6563 -365.834)">
		<stop  offset="0" style="stop-color:#69C5F0"/>
		<stop  offset="0.05" style="stop-color:#69C5F0"/>
		<stop  offset="0.38" style="stop-color:#3F88D0"/>
		<stop  offset="0.5" style="stop-color:#3F88D0"/>
		<stop  offset="0.73" style="stop-color:#2C61B5"/>
		<stop  offset="0.95" style="stop-color:#2C61B5"/>
		<stop  offset="1" style="stop-color:#2C61B5"/>
	</linearGradient>
	<path class="st1" d="M-145.89,220.18c27.45-3.9,55.51-5.92,84.04-5.92c28.53,0,56.58,2.02,84.03,5.92
		c-27.45,3.9-55.51,5.92-84.03,5.92C-90.37,226.1-118.43,224.08-145.89,220.18"/>
</g>
</svg>
