<?xml version="1.0" encoding="UTF-8" standalone="no"?>
<!-- Created with Inkscape (http://www.inkscape.org/) -->

<svg
   version="1.1"
   id="svg2"
   width="793.33331"
   height="1122.6667"
   viewBox="0 0 793.33331 1122.6667"
   sodipodi:docname="KAIST_logo.ai"
   xmlns:inkscape="http://www.inkscape.org/namespaces/inkscape"
   xmlns:sodipodi="http://sodipodi.sourceforge.net/DTD/sodipodi-0.dtd"
   xmlns="http://www.w3.org/2000/svg"
   xmlns:svg="http://www.w3.org/2000/svg">
  <defs
     id="defs6">
    <clipPath
       clipPathUnits="userSpaceOnUse"
       id="clipPath22">
      <path
         d="M 0,842 H 595 V 0 H 0 Z"
         id="path20" />
    </clipPath>
    <linearGradient
       x1="0"
       y1="0"
       x2="1"
       y2="0"
       gradientUnits="userSpaceOnUse"
       gradientTransform="matrix(404.1861,0,0,404.1861,99.95752,352.45605)"
       spreadMethod="pad"
       id="linearGradient58">
      <stop
         style="stop-opacity:1;stop-color:#67c5f0"
         offset="0"
         id="stop44" />
      <stop
         style="stop-opacity:1;stop-color:#67c5f0"
         offset="0.0500031"
         id="stop46" />
      <stop
         style="stop-opacity:1;stop-color:#3f89d0"
         offset="0.38163422"
         id="stop48" />
      <stop
         style="stop-opacity:1;stop-color:#3f89d0"
         offset="0.5"
         id="stop50" />
      <stop
         style="stop-opacity:1;stop-color:#1c63b7"
         offset="0.73155617"
         id="stop52" />
      <stop
         style="stop-opacity:1;stop-color:#1c63b7"
         offset="0.949997"
         id="stop54" />
      <stop
         style="stop-opacity:1;stop-color:#1c63b7"
         offset="1"
         id="stop56" />
    </linearGradient>
  </defs>
  <sodipodi:namedview
     id="namedview4"
     pagecolor="#ffffff"
     bordercolor="#000000"
     borderopacity="0.25"
     inkscape:showpageshadow="2"
     inkscape:pageopacity="0.0"
     inkscape:pagecheckerboard="0"
     inkscape:deskcolor="#d1d1d1" />
  <g
     id="g8"
     inkscape:groupmode="layer"
     inkscape:label="KAIST_logo"
     transform="matrix(1.3333333,0,0,-1.3333333,0,1122.6667)">
    <path
       d="m 292.66,382.443 h 18.918 v 71.189 H 292.66 Z"
       style="fill:#1f4899;fill-opacity:1;fill-rule:nonzero;stroke:none"
       id="path10" />
    <g
       id="g12"
       transform="translate(393.79,453.6328)">
      <path
         d="m 0,0 v -14.827 h 23.803 v -56.362 h 18.915 v 56.362 H 66.522 V 0 Z"
         style="fill:#1f4899;fill-opacity:1;fill-rule:nonzero;stroke:none"
         id="path14" />
    </g>
    <g
       id="g16">
      <g
         id="g18"
         clip-path="url(#clipPath22)">
        <g
           id="g24"
           transform="translate(367.4346,425.4517)">
          <path
             d="m 0,0 h -15.815 c -4.2,0 -7.606,1.735 -7.606,6.677 0,4.949 3.406,6.677 7.606,6.677 H 18.189 V 28.181 H -18.06 c -13.532,0 -24.503,-7.811 -24.503,-21.504 0,-13.699 10.971,-21.5 24.503,-21.5 h 16.27 c 4.197,0 7.602,-1.736 7.602,-6.679 0,-4.948 -3.405,-6.674 -7.602,-6.674 H -39.936 V -43.008 H 0 c 13.532,0 24.499,7.791 24.499,21.492 C 24.499,-7.828 13.532,0 0,0"
             style="fill:#1f4899;fill-opacity:1;fill-rule:nonzero;stroke:none"
             id="path26" />
        </g>
        <g
           id="g28"
           transform="translate(235.0532,453.6328)">
          <path
             d="M 0,0 -26.759,-64.063 -52.271,-35.594 -20.371,0 H -41.98 L -72.21,-33.795 V 0 h -18.921 v -71.189 h 18.921 v 33.794 l 30.23,-33.794 h 31.473 l 21.67,53.687 15.733,-39.474 H 1.884 L 7.823,-71.189 H 52.064 L 22.321,0 Z"
             style="fill:#1f4899;fill-opacity:1;fill-rule:nonzero;stroke:none"
             id="path30" />
        </g>
      </g>
    </g>
    <g
       id="g32">
      <g
         id="g34">
        <g
           id="g40">
          <g
             id="g42">
            <path
               d="m 100.026,352.54 c 66.015,-9.379 133.485,-14.237 202.091,-14.237 v 0 c 68.609,0 136.078,4.858 202.094,14.237 v 0 c -66.016,9.382 -133.485,14.24 -202.094,14.24 v 0 c -68.606,0 -136.076,-4.858 -202.091,-14.24"
               style="fill:url(#linearGradient58);stroke:none"
               id="path60" />
          </g>
        </g>
      </g>
    </g>
  </g>
</svg>
